<svg width="28" height="28" viewBox="0 0 28 28" fill="none" xmlns="http://www.w3.org/2000/svg">
<path d="M14.0028 2.29877C14.1679 2.0621 14.3799 1.86199 14.6258 1.71093C14.8716 1.55986 15.146 1.46109 15.4317 1.42076C15.7174 1.38043 16.0084 1.39942 16.2864 1.47653C16.5645 1.55365 16.8237 1.68724 17.0478 1.86897L21.6258 5.58597C22.0348 5.9179 22.3042 6.39145 22.3804 6.91269C22.4567 7.43393 22.3342 7.96478 22.0374 8.39997H20.3294L20.8754 7.61737C20.977 7.4724 21.02 7.29432 20.9955 7.11897C20.9711 6.94363 20.8812 6.78404 20.7438 6.67237L18.3862 4.75997L15.8718 8.39997H14.168L17.2956 3.87517L16.1644 2.95677C16.0897 2.89617 16.0033 2.85161 15.9107 2.82586C15.818 2.80012 15.721 2.79375 15.6258 2.80715C15.5306 2.82055 15.4391 2.85343 15.3571 2.90374C15.2752 2.95405 15.2045 3.02071 15.1494 3.09957L11.452 8.39857H9.744L14.0028 2.29877V2.29877ZM18.9 16.8C18.7143 16.8 18.5363 16.8737 18.405 17.005C18.2737 17.1363 18.2 17.3143 18.2 17.5C18.2 17.6856 18.2737 17.8637 18.405 17.9949C18.5363 18.1262 18.7143 18.2 18.9 18.2H20.3C20.4856 18.2 20.6637 18.1262 20.795 17.9949C20.9262 17.8637 21 17.6856 21 17.5C21 17.3143 20.9262 17.1363 20.795 17.005C20.6637 16.8737 20.4856 16.8 20.3 16.8H18.9ZM6.3 6.99997H9.3366L8.3566 8.39997H6.3C6.11435 8.39997 5.9363 8.47372 5.80502 8.60499C5.67375 8.73627 5.6 8.91431 5.6 9.09997C5.6 9.28562 5.67375 9.46366 5.80502 9.59494C5.9363 9.72622 6.11435 9.79997 6.3 9.79997H21C21.7426 9.79997 22.4548 10.095 22.9799 10.6201C23.505 11.1452 23.8 11.8574 23.8 12.6V21C23.8 21.7426 23.505 22.4548 22.9799 22.9799C22.4548 23.505 21.7426 23.8 21 23.8H7.7C6.77174 23.8 5.8815 23.4312 5.22512 22.7748C4.56875 22.1185 4.2 21.2282 4.2 20.3V9.09997C4.2 8.54301 4.42125 8.00887 4.81507 7.61504C5.2089 7.22121 5.74304 6.99997 6.3 6.99997V6.99997ZM5.6 20.3C5.6 20.8569 5.82125 21.3911 6.21507 21.7849C6.6089 22.1787 7.14304 22.4 7.7 22.4H21C21.3713 22.4 21.7274 22.2525 21.9899 21.9899C22.2525 21.7274 22.4 21.3713 22.4 21V12.6C22.4 12.2287 22.2525 11.8726 21.9899 11.61C21.7274 11.3475 21.3713 11.2 21 11.2H6.3C6.055 11.2 5.8184 11.158 5.6 11.081V20.3Z" fill="white"/>
</svg>
