<svg width="28" height="28" viewBox="0 0 28 28" fill="none" xmlns="http://www.w3.org/2000/svg">
<path d="M4.63981 11.48C4.68674 10.8953 4.95219 10.3497 5.38329 9.95187C5.8144 9.55406 6.37953 9.33322 6.96614 9.33334H21.0338C21.6204 9.33322 22.1855 9.55406 22.6167 9.95187C23.0478 10.3497 23.3132 10.8953 23.3601 11.48L24.297 23.1467C24.3227 23.4677 24.2818 23.7907 24.1766 24.0951C24.0715 24.3995 23.9044 24.6789 23.686 24.9156C23.4676 25.1524 23.2025 25.3413 22.9075 25.4705C22.6125 25.5998 22.2939 25.6666 21.9718 25.6667H6.02814C5.70605 25.6666 5.38747 25.5998 5.09245 25.4705C4.79743 25.3413 4.53237 25.1524 4.31395 24.9156C4.09554 24.6789 3.92849 24.3995 3.82334 24.0951C3.71819 23.7907 3.67721 23.4677 3.70297 23.1467L4.63981 11.48V11.48Z" stroke="white" stroke-width="2" stroke-linecap="round" stroke-linejoin="round"/>
<path d="M18.6666 12.8333V7.00001C18.6666 5.76233 18.175 4.57535 17.2998 3.70018C16.4246 2.82501 15.2377 2.33334 14 2.33334C12.7623 2.33334 11.5753 2.82501 10.7001 3.70018C9.82498 4.57535 9.33331 5.76233 9.33331 7.00001V12.8333" stroke="white" stroke-width="2" stroke-linecap="round" stroke-linejoin="round"/>
</svg>
