<svg width="96" height="96" viewBox="0 0 96 96" fill="none" xmlns="http://www.w3.org/2000/svg">
<path d="M15.9079 39.3599C16.0688 37.3552 16.9789 35.4845 18.457 34.1206C19.9351 32.7567 21.8727 31.9995 23.8839 31.9999H72.1159C74.1272 31.9995 76.0647 32.7567 77.5428 34.1206C79.0209 35.4845 79.931 37.3552 80.0919 39.3599L83.3039 79.3599C83.3923 80.4607 83.2518 81.5679 82.8913 82.6117C82.5307 83.6555 81.958 84.6133 81.2091 85.4249C80.4603 86.2366 79.5515 86.8843 78.54 87.3275C77.5285 87.7707 76.4362 87.9996 75.3319 87.9999H20.6679C19.5636 87.9996 18.4713 87.7707 17.4598 87.3275C16.4484 86.8843 15.5396 86.2366 14.7907 85.4249C14.0419 84.6133 13.4691 83.6555 13.1086 82.6117C12.7481 81.5679 12.6076 80.4607 12.6959 79.3599L15.9079 39.3599V39.3599Z" stroke="white" stroke-width="4" stroke-linecap="round" stroke-linejoin="round"/>
<path d="M63.9999 43.9999V23.9999C63.9999 19.7565 62.3142 15.6868 59.3136 12.6862C56.3131 9.68565 52.2434 7.99994 47.9999 7.99994C43.7565 7.99994 39.6868 9.68565 36.6862 12.6862C33.6856 15.6868 31.9999 19.7565 31.9999 23.9999V43.9999" stroke="white" stroke-width="4" stroke-linecap="round" stroke-linejoin="round"/>
<path d="M30.1142 66.7143C29.0886 67.1245 28.5898 68.2885 29 69.314C29.4102 70.3396 30.5741 70.8384 31.5997 70.4282L30.1142 66.7143ZM64.3999 70.4282C65.4254 70.8384 66.5894 70.3396 66.9996 69.314C67.4098 68.2885 66.911 67.1245 65.8854 66.7143L64.3999 70.4282ZM31.5997 70.4282C42.1276 66.2171 53.872 66.2171 64.3999 70.4282L65.8854 66.7143C54.4039 62.1217 41.5957 62.1217 30.1142 66.7143L31.5997 70.4282Z" fill="white"/>
</svg>
