<svg width="156" height="48" viewBox="0 0 156 48" fill="none" xmlns="http://www.w3.org/2000/svg">
<path d="M18.8447 48C7.24674 48 -4.72013e-05 38.598 -4.66943e-05 27C-4.61873e-05 15.402 7.24675 6 18.8447 6C30.4427 6 21.0947 19.152 21.0947 30.75C21.0947 42.348 30.4427 48 18.8447 48Z" fill="white"/>
<path d="M33.5604 6.92886e-08C45.1584 2.07593e-07 54.5604 9.40202 54.5604 21C54.5604 32.598 45.1584 42 33.5604 42C21.9624 42 31.3104 28.848 31.3104 17.25C31.3104 5.65202 21.9624 -6.90159e-08 33.5604 6.92886e-08Z" fill="white"/>
<path d="M66.882 29.5H74.49C78.066 29.5 80.154 27.748 80.154 24.82C80.154 22.684 79.002 21.22 77.034 20.788V20.74C78.738 20.284 79.746 18.916 79.746 17.044C79.746 14.14 77.754 12.46 74.37 12.46H66.882V29.5ZM70.386 19.564V15.148H73.842C75.378 15.148 76.29 15.964 76.29 17.356C76.29 18.748 75.378 19.564 73.842 19.564H70.386ZM70.386 26.812V22.06H73.842C75.618 22.06 76.674 22.948 76.674 24.436C76.674 25.924 75.618 26.812 73.842 26.812H70.386ZM95.4446 29.956C96.6926 29.956 97.8446 29.38 98.6126 28.492L97.6046 26.74C97.2446 27.244 96.8846 27.484 96.5246 27.484C96.1166 27.484 95.8766 27.124 95.7326 26.62L95.1086 24.196C94.8926 23.284 94.4606 22.588 93.5966 22.18V22.156C95.9726 21.604 97.3886 19.804 97.3886 17.668C97.3886 14.524 94.9166 12.46 91.2206 12.46H84.0926V29.5H87.5966V22.756H89.8046C90.6446 22.756 91.4126 23.452 91.7006 24.436L92.5406 27.58C92.9006 28.972 93.8846 29.956 95.4446 29.956ZM87.5966 20.164V15.196H90.9806C92.7086 15.196 93.9086 16.156 93.9086 17.716C93.9086 19.18 92.6846 20.164 90.9806 20.164H87.5966ZM101.959 29.5H112.735V26.62H105.343V22.036H111.535V19.468H105.343V15.316H112.496V12.46H101.959V29.5ZM119.736 29.5H124.296L127.152 16.252H127.2L130.008 29.5H134.592L138.816 12.46H135.264L132.312 25.972H132.264L129.384 12.46H124.968L122.088 25.972H122.04L119.04 12.46H115.488L119.736 29.5ZM141.375 29.5H153.759V26.74H145.119L153.519 15.58V12.46H141.615V15.22H149.775L141.375 26.404V29.5Z" fill="white"/>
</svg>
